<svg id="OBJECTS" xmlns="http://www.w3.org/2000/svg" xmlns:xlink="http://www.w3.org/1999/xlink" viewBox="0 0 500 500"><defs><style>.cls-1,.cls-2,.cls-7{stroke-miterlimit:10;}.cls-1,.cls-2{stroke-width:6px;}.cls-1{fill:url(#linear-gradient);stroke:url(#linear-gradient-2);}.cls-2,.cls-7{fill:none;}.cls-2{stroke:url(#linear-gradient-3);}.cls-3{fill:url(#linear-gradient-4);}.cls-4{fill:url(#linear-gradient-5);}.cls-5{fill:url(#linear-gradient-6);}.cls-6{fill:#f4f4f4;}.cls-7{stroke:#f4f4f4;stroke-linecap:round;stroke-width:11.11px;}</style><linearGradient id="linear-gradient" x1="36.11" y1="126.3" x2="463.89" y2="126.3" gradientUnits="userSpaceOnUse"><stop offset="0.26" stop-color="#f4d975"/><stop offset="1" stop-color="#edba64"/></linearGradient><linearGradient id="linear-gradient-2" x1="33.11" y1="126.3" x2="466.89" y2="126.3" xlink:href="#linear-gradient"/><linearGradient id="linear-gradient-3" x1="33.11" y1="293.18" x2="466.89" y2="293.18" xlink:href="#linear-gradient"/><linearGradient id="linear-gradient-4" x1="117.83" y1="293.18" x2="203.59" y2="293.18" xlink:href="#linear-gradient"/><linearGradient id="linear-gradient-5" x1="208.65" y1="293.18" x2="293.15" y2="293.18" xlink:href="#linear-gradient"/><linearGradient id="linear-gradient-6" x1="296.41" y1="293.18" x2="382.17" y2="293.18" xlink:href="#linear-gradient"/></defs><title>developing</title><g id="developing"><path class="cls-1" d="M408,83.12H92A55.91,55.91,0,0,0,36.11,139v30.45H463.89V139A55.91,55.91,0,0,0,408,83.12Z"/><path class="cls-2" d="M36.11,169.48V361A55.91,55.91,0,0,0,92,416.88H408A55.91,55.91,0,0,0,463.89,361V169.48Z"/><path class="cls-3" d="M203.59,265.58l-60,27.59,60,27.37v28.27l-85.77-40.94v-29.4l85.77-40.93Z"/><path class="cls-4" d="M268.11,208.31h25L233.69,378h-25Z"/><path class="cls-5" d="M382.17,278.48v29.4l-85.77,40.94V320.54l60-27.37-60-27.59v-28Z"/><circle class="cls-6" cx="96.48" cy="126.3" r="21.32"/><circle class="cls-6" cx="165.73" cy="126.3" r="21.32"/><circle class="cls-6" cx="234.98" cy="126.3" r="21.32"/><line class="cls-7" x1="298.17" y1="126.3" x2="424.85" y2="126.3"/></g></svg>