<svg id="OBJECTS" xmlns="http://www.w3.org/2000/svg" xmlns:xlink="http://www.w3.org/1999/xlink" viewBox="0 0 500 500"><defs><style>.cls-1{fill:url(#linear-gradient);}.cls-2{fill:url(#linear-gradient-2);}.cls-3{fill:url(#linear-gradient-3);}.cls-4{fill:url(#linear-gradient-4);}.cls-5{fill:url(#linear-gradient-5);}.cls-6{fill:url(#linear-gradient-6);}.cls-7{fill:url(#linear-gradient-7);}.cls-8{fill:url(#linear-gradient-8);}.cls-9{fill:url(#linear-gradient-9);}.cls-10{fill:url(#linear-gradient-10);}.cls-11{fill:url(#linear-gradient-11);}.cls-12{fill:url(#linear-gradient-12);}.cls-13{fill:url(#linear-gradient-13);}.cls-14{fill:url(#linear-gradient-14);}.cls-15{fill:url(#linear-gradient-15);}.cls-16{fill:url(#linear-gradient-16);}.cls-17{fill:url(#linear-gradient-17);}.cls-18{fill:url(#linear-gradient-18);}</style><linearGradient id="linear-gradient" x1="364.15" y1="167.22" x2="375.85" y2="167.22" gradientUnits="userSpaceOnUse"><stop offset="0.26" stop-color="#f4d975"/><stop offset="1" stop-color="#edba64"/></linearGradient><linearGradient id="linear-gradient-2" x1="315.09" y1="274.85" x2="326.79" y2="274.85" xlink:href="#linear-gradient"/><linearGradient id="linear-gradient-3" x1="342.12" y1="258.83" x2="353.82" y2="258.83" xlink:href="#linear-gradient"/><linearGradient id="linear-gradient-4" x1="315.09" y1="230.8" x2="326.79" y2="230.8" xlink:href="#linear-gradient"/><linearGradient id="linear-gradient-5" x1="183.41" y1="230.8" x2="195.11" y2="230.8" xlink:href="#linear-gradient"/><linearGradient id="linear-gradient-6" x1="183.41" y1="274.85" x2="195.11" y2="274.85" xlink:href="#linear-gradient"/><linearGradient id="linear-gradient-7" x1="156.37" y1="258.83" x2="168.07" y2="258.83" xlink:href="#linear-gradient"/><linearGradient id="linear-gradient-8" x1="134.35" y1="167.22" x2="146.05" y2="167.22" xlink:href="#linear-gradient"/><linearGradient id="linear-gradient-9" x1="112.58" y1="193.66" x2="398.15" y2="193.66" xlink:href="#linear-gradient"/><linearGradient id="linear-gradient-10" x1="286.77" y1="114.66" x2="305.04" y2="114.66" xlink:href="#linear-gradient"/><linearGradient id="linear-gradient-11" x1="205.15" y1="114.66" x2="223.42" y2="114.66" xlink:href="#linear-gradient"/><linearGradient id="linear-gradient-12" x1="171.39" y1="184.74" x2="183.09" y2="184.74" xlink:href="#linear-gradient"/><linearGradient id="linear-gradient-13" x1="186.07" y1="151.2" x2="202.46" y2="151.2" xlink:href="#linear-gradient"/><linearGradient id="linear-gradient-14" x1="327.1" y1="184.74" x2="338.8" y2="184.74" xlink:href="#linear-gradient"/><linearGradient id="linear-gradient-15" x1="307.73" y1="151.2" x2="324.13" y2="151.2" xlink:href="#linear-gradient"/><linearGradient id="linear-gradient-16" x1="194.24" y1="411.28" x2="315.98" y2="411.28" xlink:href="#linear-gradient"/><linearGradient id="linear-gradient-17" x1="194.24" y1="379" x2="315.98" y2="379" xlink:href="#linear-gradient"/><linearGradient id="linear-gradient-18" x1="215.97" y1="444.32" x2="294.25" y2="444.32" xlink:href="#linear-gradient"/></defs><title>inventing</title><g id="inventing"><g id="_Group_" data-name="&lt;Group&gt;"><g id="_Group_2" data-name="&lt;Group&gt;"><circle id="_Path_" data-name="&lt;Path&gt;" class="cls-1" cx="370" cy="167.22" r="5.85"/><circle id="_Path_2" data-name="&lt;Path&gt;" class="cls-2" cx="320.94" cy="274.85" r="5.85"/><circle id="_Path_3" data-name="&lt;Path&gt;" class="cls-3" cx="347.97" cy="258.83" r="5.85"/><circle id="_Path_4" data-name="&lt;Path&gt;" class="cls-4" cx="320.94" cy="230.8" r="5.85"/><circle id="_Path_5" data-name="&lt;Path&gt;" class="cls-5" cx="189.26" cy="230.8" r="5.85"/><circle id="_Path_6" data-name="&lt;Path&gt;" class="cls-6" cx="189.26" cy="274.85" r="5.85"/><circle id="_Path_7" data-name="&lt;Path&gt;" class="cls-7" cx="162.22" cy="258.83" r="5.85"/><circle id="_Path_8" data-name="&lt;Path&gt;" class="cls-8" cx="140.2" cy="167.22" r="5.85"/><path id="_Compound_Path_" data-name="&lt;Compound Path&gt;" class="cls-9" d="M255.06,33.21c-78.85,0-142.47,63.92-142.47,142.76a142.38,142.38,0,0,0,82.18,129.16v34.48c0,8.29,6,14.48,14.29,14.48h14.17V236.27l-41.76-41.43a11.43,11.43,0,0,1-4.1.76,10.86,10.86,0,1,1,10.75-10.86,11.11,11.11,0,0,1,.06,1.93l35.06,34.74V186.87l-23-22.67a14.69,14.69,0,0,1-5.84,1.21,14.23,14.23,0,1,1,13-8.7L231.93,181a5.47,5.47,0,0,1,1.75,3.72V354.1h7.55V149.32l-19.77-19.54a17.06,17.06,0,0,1-7.06,1.52,16.67,16.67,0,1,1,14.52-8.71l21,20.83a5.46,5.46,0,0,1,1.74,3.72v207h7v-207a5.33,5.33,0,0,1,1.61-3.72l20.94-20.91a16.66,16.66,0,1,1,14.7,8.78,17,17,0,0,1-7.12-1.56l-19.68,19.58V354.1h7.55V184.69a5.34,5.34,0,0,1,1.63-3.72l24.48-24.34a14.22,14.22,0,1,1,13.17,8.79,13.28,13.28,0,0,1-5.62-1.24l-22.62,22.71v34.66l34.76-34.86A10.77,10.77,0,1,1,333,195.6a9.89,9.89,0,0,1-3.81-.76l-41.46,41.54V354.1h13.08c8.29,0,16-6.18,16-14.48V305.14A142.68,142.68,0,0,0,398.15,176C398.15,97.13,333.9,33.21,255.06,33.21ZM178.57,230.8a10.79,10.79,0,0,1,10.77-10.86,11.07,11.07,0,0,1,11.09,10.86,10.69,10.69,0,0,1-5.66,9.65V265.2a10.65,10.65,0,0,1,5.62,9.65,11,11,0,0,1-11,10.86,10.78,10.78,0,0,1-10.75-10.86,10.46,10.46,0,0,1,7.41-10.26V241.06A10.52,10.52,0,0,1,178.57,230.8Zm-5.5,28A10.86,10.86,0,1,1,151.75,256l-15.17-15.33a4.09,4.09,0,0,1-1.06-3v-60.8c-2.9-1.82-6-5.44-6-9.6a10.79,10.79,0,1,1,21.57,0,10.48,10.48,0,0,1-7.44,10.29v58.35l13.43,13.41a10.85,10.85,0,0,1,16,9.56Zm158.67,16a10.85,10.85,0,0,1-10.83,10.86,11,11,0,0,1-11-10.86,11.89,11.89,0,0,1,5.65-9.59V240.39a11.88,11.88,0,0,1-5.63-9.59,10.89,10.89,0,0,1,21.78,0,10.46,10.46,0,0,1-7.43,10.3v23.46A10.49,10.49,0,0,1,331.75,274.85Zm43.06-98v60.74a4.2,4.2,0,0,1-1.19,3l-15.24,15.24A10.84,10.84,0,1,1,348,248a11.31,11.31,0,0,1,5.18,1.25l13.53-13.37V177.47a10.46,10.46,0,0,1-7.41-10.25,10.78,10.78,0,1,1,21.55,0A10,10,0,0,1,374.81,176.89Z"/><path id="_Path_9" data-name="&lt;Path&gt;" class="cls-10" d="M295.91,123.79a9.16,9.16,0,1,0-7.22-3.56l1.65,1.65A9.08,9.08,0,0,0,295.91,123.79Z"/><path id="_Path_10" data-name="&lt;Path&gt;" class="cls-11" d="M205.15,114.66a9.13,9.13,0,0,0,14.24,7.56l2.45-2.45a9.13,9.13,0,1,0-16.7-5.11Z"/><circle id="_Path_11" data-name="&lt;Path&gt;" class="cls-12" cx="177.24" cy="184.74" r="5.85"/><circle id="_Path_12" data-name="&lt;Path&gt;" class="cls-13" cx="194.26" cy="151.2" r="8.2"/><circle id="_Path_13" data-name="&lt;Path&gt;" class="cls-14" cx="332.95" cy="184.74" r="5.85"/><circle id="_Path_14" data-name="&lt;Path&gt;" class="cls-15" cx="315.93" cy="151.2" r="8.2"/></g><rect id="_Rectangle_" data-name="&lt;Rectangle&gt;" class="cls-16" x="194.24" y="398.47" width="121.75" height="25.62" rx="8.56" ry="8.56"/><rect id="_Rectangle_2" data-name="&lt;Rectangle&gt;" class="cls-17" x="194.24" y="366.19" width="121.75" height="25.62" rx="8.56" ry="8.56"/><rect id="_Rectangle_3" data-name="&lt;Rectangle&gt;" class="cls-18" x="215.97" y="431.51" width="78.29" height="25.62" rx="8.56" ry="8.56"/></g></g></svg>