<svg id="OBJECTS" xmlns="http://www.w3.org/2000/svg" xmlns:xlink="http://www.w3.org/1999/xlink" viewBox="0 0 500 500"><defs><style>.cls-1,.cls-2,.cls-3{stroke-miterlimit:10;stroke-width:6px;}.cls-1{fill:url(#linear-gradient);stroke:url(#linear-gradient-2);}.cls-2{fill:url(#linear-gradient-3);stroke:url(#linear-gradient-4);}.cls-3{fill:url(#linear-gradient-5);stroke:url(#linear-gradient-6);}</style><linearGradient id="linear-gradient" x1="235.45" y1="188.12" x2="461.44" y2="188.12" gradientUnits="userSpaceOnUse"><stop offset="0.26" stop-color="#f4d975"/><stop offset="1" stop-color="#edba64"/></linearGradient><linearGradient id="linear-gradient-2" x1="232.45" y1="188.12" x2="464.44" y2="188.12" xlink:href="#linear-gradient"/><linearGradient id="linear-gradient-3" x1="67.57" y1="250.23" x2="371.29" y2="250.23" xlink:href="#linear-gradient"/><linearGradient id="linear-gradient-4" x1="64.57" y1="250.23" x2="374.29" y2="250.23" xlink:href="#linear-gradient"/><linearGradient id="linear-gradient-5" x1="295.22" y1="164.76" x2="450.44" y2="164.76" xlink:href="#linear-gradient"/><linearGradient id="linear-gradient-6" x1="292.22" y1="164.76" x2="453.44" y2="164.76" xlink:href="#linear-gradient"/></defs><title>learning</title><g id="learning"><g id="Layer_7" data-name="Layer 7"><path class="cls-1" d="M428,75.28a9,9,0,0,0-6.56,2.51c-9.92,9.92-158.55,158.56-166.94,166.94l-.07-.07-.07.25a.88.88,0,0,0-.12.37s-22,51.68-18.42,55.29,55.5-18.23,55.5-18.23S445.48,128.22,458.7,115C470,103.61,443.53,75.28,428,75.28Zm24.32,33.38-161,161.05-24.56-24.56c29.43-29.42,152-152,160.81-160.86a1.16,1.16,0,0,1,.47-.07c6.26,0,19.51,10.5,23.56,20.28C452.61,106.92,452.58,108.43,452.35,108.65Z"/><path class="cls-2" d="M344.48,239.45v130H282.15v57.27l-.84.77H94.36V72.94H344.48V143.4l26.8-26.8v-57a13.39,13.39,0,0,0-13.39-13.39H81A13.38,13.38,0,0,0,67.57,59.55V440.91A13.39,13.39,0,0,0,81,454.31H286.44a13.56,13.56,0,0,0,8.94-3.4l71.45-64a13.38,13.38,0,0,0,4.45-10V212.66Z"/><path class="cls-3" d="M298.57,242.38a3.45,3.45,0,0,1-2.37-1,3.35,3.35,0,0,1,0-4.75L444.72,88.13a3.35,3.35,0,1,1,4.73,4.75L301,241.4A3.42,3.42,0,0,1,298.57,242.38Z"/></g></g></svg>