<svg id="OBJECTS" xmlns="http://www.w3.org/2000/svg" xmlns:xlink="http://www.w3.org/1999/xlink" viewBox="0 0 500 500"><defs><style>.cls-1{fill:url(#linear-gradient);}</style><linearGradient id="linear-gradient" x1="83.71" y1="247.54" x2="416.29" y2="247.54" gradientUnits="userSpaceOnUse"><stop offset="0.26" stop-color="#f4d975"/><stop offset="1" stop-color="#edba64"/></linearGradient></defs><title>teaching</title><g id="teaching"><path class="cls-1" d="M416.29,102.42V236.13a6.89,6.89,0,0,1-6.9,6.9H227.52a6.9,6.9,0,0,1-6.9-6.9V225.57l13.8-9.25v12.91H402.49V109.3H234.41v50.47c-.61.47-1.27.87-1.84,1.4l-1.93,1.34a39.89,39.89,0,0,0-10-14.82V102.42a6.91,6.91,0,0,1,6.9-6.9H409.4A6.89,6.89,0,0,1,416.29,102.42ZM253.45,193l8.26-5.54h0s0,0,.06-.08A12.85,12.85,0,0,0,264,172.19l66.82-45.34-3-4.48L260.4,168.08a12.65,12.65,0,0,0-7-2.58,13.11,13.11,0,0,0-9.82,3.78s-.06.07-.08.07l-1.65,1.15-15,10.22v-4.34c-2.78-33-41.08-32.56-41.08-32.56H169.26l-13.94,22.94-14-22.93H125.4c-43.21.81-41.69,32.55-41.69,32.55v74.07h0c0,.19,0,.42,0,.57a12.71,12.71,0,1,0,25.42,0,4.89,4.89,0,0,0,0-.57h0v-68.5h7.95L117,397.75a17.17,17.17,0,1,0,34.34,0V258.47H159V397.91l.14.16a17.09,17.09,0,0,0,34.17-.2l0-216.28h8.27v22.64a12.72,12.72,0,0,0,12.69,12.71,12.16,12.16,0,0,0,5.67-1.49l.06.08,22-14.73ZM155.07,138.3A29.08,29.08,0,1,0,126,109.22,29.08,29.08,0,0,0,155.07,138.3Z"/></g></svg>